<mxfile host="app.diagrams.net" agent="Mozilla/5.0 (Windows NT 10.0; Win64; x64; rv:132.0) Gecko/20100101 Firefox/132.0" version="24.7.14">
  <diagram name="Page-1" id="KPk57_ptNWIrNSPmT6OU">
    <mxGraphModel dx="1195" dy="628" grid="1" gridSize="10" guides="1" tooltips="1" connect="1" arrows="1" fold="1" page="1" pageScale="1" pageWidth="827" pageHeight="1169" math="0" shadow="0">
      <root>
        <mxCell id="0" />
        <mxCell id="1" parent="0" />
        <mxCell id="LF-yFiG6YkYiWmJkr-Sb-19" value="" style="rounded=0;whiteSpace=wrap;html=1;fillColor=none;dashed=1;" vertex="1" parent="1">
          <mxGeometry x="610" y="65" width="120" height="255" as="geometry" />
        </mxCell>
        <mxCell id="LF-yFiG6YkYiWmJkr-Sb-18" value="" style="endArrow=none;dashed=1;html=1;rounded=0;" edge="1" parent="1">
          <mxGeometry width="50" height="50" relative="1" as="geometry">
            <mxPoint x="373.58" y="280" as="sourcePoint" />
            <mxPoint x="373.58" y="110" as="targetPoint" />
          </mxGeometry>
        </mxCell>
        <mxCell id="LF-yFiG6YkYiWmJkr-Sb-2" value="&lt;div&gt;HaProxy&lt;/div&gt;" style="whiteSpace=wrap;html=1;aspect=fixed;" vertex="1" parent="1">
          <mxGeometry x="334" y="160" width="80" height="80" as="geometry" />
        </mxCell>
        <mxCell id="LF-yFiG6YkYiWmJkr-Sb-3" value="Server 1" style="whiteSpace=wrap;html=1;aspect=fixed;" vertex="1" parent="1">
          <mxGeometry x="490" y="100" width="80" height="80" as="geometry" />
        </mxCell>
        <mxCell id="LF-yFiG6YkYiWmJkr-Sb-4" value="&lt;div&gt;Server 2&lt;/div&gt;" style="whiteSpace=wrap;html=1;aspect=fixed;" vertex="1" parent="1">
          <mxGeometry x="490" y="220" width="80" height="80" as="geometry" />
        </mxCell>
        <mxCell id="LF-yFiG6YkYiWmJkr-Sb-5" value="&lt;div&gt;PostgresDB&lt;/div&gt;&lt;div&gt;Master&lt;br&gt;&lt;/div&gt;" style="whiteSpace=wrap;html=1;aspect=fixed;" vertex="1" parent="1">
          <mxGeometry x="630" y="100" width="80" height="80" as="geometry" />
        </mxCell>
        <mxCell id="LF-yFiG6YkYiWmJkr-Sb-6" value="&lt;div&gt;PostgresDB&lt;/div&gt;&lt;div&gt;Slave&lt;br&gt;&lt;/div&gt;" style="whiteSpace=wrap;html=1;aspect=fixed;" vertex="1" parent="1">
          <mxGeometry x="630" y="220" width="80" height="80" as="geometry" />
        </mxCell>
        <mxCell id="LF-yFiG6YkYiWmJkr-Sb-8" value="" style="endArrow=classic;startArrow=classic;html=1;rounded=0;entryX=0;entryY=0.5;entryDx=0;entryDy=0;exitX=1;exitY=0.5;exitDx=0;exitDy=0;" edge="1" parent="1" source="LF-yFiG6YkYiWmJkr-Sb-2" target="LF-yFiG6YkYiWmJkr-Sb-3">
          <mxGeometry width="50" height="50" relative="1" as="geometry">
            <mxPoint x="510" y="300" as="sourcePoint" />
            <mxPoint x="560" y="250" as="targetPoint" />
          </mxGeometry>
        </mxCell>
        <mxCell id="LF-yFiG6YkYiWmJkr-Sb-10" value="" style="endArrow=classic;startArrow=classic;html=1;rounded=0;exitX=1;exitY=0.5;exitDx=0;exitDy=0;entryX=0;entryY=0.5;entryDx=0;entryDy=0;" edge="1" parent="1" source="LF-yFiG6YkYiWmJkr-Sb-2" target="LF-yFiG6YkYiWmJkr-Sb-4">
          <mxGeometry width="50" height="50" relative="1" as="geometry">
            <mxPoint x="510" y="300" as="sourcePoint" />
            <mxPoint x="560" y="250" as="targetPoint" />
          </mxGeometry>
        </mxCell>
        <mxCell id="LF-yFiG6YkYiWmJkr-Sb-11" value="" style="endArrow=classic;startArrow=classic;html=1;rounded=0;entryX=0;entryY=0.5;entryDx=0;entryDy=0;exitX=1;exitY=0.5;exitDx=0;exitDy=0;" edge="1" parent="1" source="LF-yFiG6YkYiWmJkr-Sb-3" target="LF-yFiG6YkYiWmJkr-Sb-5">
          <mxGeometry width="50" height="50" relative="1" as="geometry">
            <mxPoint x="710" y="280" as="sourcePoint" />
            <mxPoint x="760" y="230" as="targetPoint" />
          </mxGeometry>
        </mxCell>
        <mxCell id="LF-yFiG6YkYiWmJkr-Sb-12" value="" style="endArrow=classic;startArrow=classic;html=1;rounded=0;entryX=0;entryY=0.5;entryDx=0;entryDy=0;exitX=1;exitY=0.5;exitDx=0;exitDy=0;" edge="1" parent="1" source="LF-yFiG6YkYiWmJkr-Sb-4" target="LF-yFiG6YkYiWmJkr-Sb-5">
          <mxGeometry width="50" height="50" relative="1" as="geometry">
            <mxPoint x="630" y="290" as="sourcePoint" />
            <mxPoint x="680" y="240" as="targetPoint" />
          </mxGeometry>
        </mxCell>
        <mxCell id="LF-yFiG6YkYiWmJkr-Sb-13" value="" style="endArrow=classic;startArrow=classic;html=1;rounded=0;entryX=0.5;entryY=1;entryDx=0;entryDy=0;exitX=0.5;exitY=0;exitDx=0;exitDy=0;" edge="1" parent="1" source="LF-yFiG6YkYiWmJkr-Sb-6" target="LF-yFiG6YkYiWmJkr-Sb-5">
          <mxGeometry width="50" height="50" relative="1" as="geometry">
            <mxPoint x="630" y="290" as="sourcePoint" />
            <mxPoint x="680" y="240" as="targetPoint" />
          </mxGeometry>
        </mxCell>
        <mxCell id="LF-yFiG6YkYiWmJkr-Sb-14" value="User" style="shape=umlActor;verticalLabelPosition=bottom;verticalAlign=top;html=1;outlineConnect=0;" vertex="1" parent="1">
          <mxGeometry x="150" y="170" width="30" height="60" as="geometry" />
        </mxCell>
        <mxCell id="LF-yFiG6YkYiWmJkr-Sb-15" value="" style="endArrow=classic;startArrow=classic;html=1;rounded=0;entryX=0;entryY=0.5;entryDx=0;entryDy=0;" edge="1" parent="1" source="LF-yFiG6YkYiWmJkr-Sb-14" target="LF-yFiG6YkYiWmJkr-Sb-2">
          <mxGeometry width="50" height="50" relative="1" as="geometry">
            <mxPoint x="380" y="250" as="sourcePoint" />
            <mxPoint x="430" y="200" as="targetPoint" />
          </mxGeometry>
        </mxCell>
        <mxCell id="LF-yFiG6YkYiWmJkr-Sb-17" value="SSL Termination" style="text;html=1;align=center;verticalAlign=middle;whiteSpace=wrap;rounded=0;" vertex="1" parent="1">
          <mxGeometry x="344" y="80" width="60" height="30" as="geometry" />
        </mxCell>
        <mxCell id="LF-yFiG6YkYiWmJkr-Sb-20" value="Postgres Database in a master slave relationship" style="text;html=1;align=center;verticalAlign=middle;whiteSpace=wrap;rounded=0;" vertex="1" parent="1">
          <mxGeometry x="570" y="20" width="200" height="30" as="geometry" />
        </mxCell>
        <mxCell id="LF-yFiG6YkYiWmJkr-Sb-21" value="&lt;div&gt;Caveat with HAProxy: &lt;br&gt;&lt;/div&gt;&lt;div&gt;For full redundancy, HAProxy needs to run in pairs&lt;br&gt;&lt;/div&gt;" style="text;html=1;align=center;verticalAlign=middle;whiteSpace=wrap;rounded=0;" vertex="1" parent="1">
          <mxGeometry y="460" width="172" height="30" as="geometry" />
        </mxCell>
        <mxCell id="LF-yFiG6YkYiWmJkr-Sb-23" value="" style="endArrow=classic;startArrow=classic;html=1;rounded=0;entryX=1;entryY=0.5;entryDx=0;entryDy=0;exitX=0;exitY=0.5;exitDx=0;exitDy=0;" edge="1" parent="1" source="LF-yFiG6YkYiWmJkr-Sb-6" target="LF-yFiG6YkYiWmJkr-Sb-3">
          <mxGeometry width="50" height="50" relative="1" as="geometry">
            <mxPoint x="570" y="60" as="sourcePoint" />
            <mxPoint x="650" y="190" as="targetPoint" />
          </mxGeometry>
        </mxCell>
        <mxCell id="LF-yFiG6YkYiWmJkr-Sb-24" value="" style="endArrow=classic;startArrow=classic;html=1;rounded=0;exitX=1;exitY=0.5;exitDx=0;exitDy=0;entryX=0;entryY=0.5;entryDx=0;entryDy=0;" edge="1" parent="1" source="LF-yFiG6YkYiWmJkr-Sb-4" target="LF-yFiG6YkYiWmJkr-Sb-6">
          <mxGeometry width="50" height="50" relative="1" as="geometry">
            <mxPoint x="600" y="240" as="sourcePoint" />
            <mxPoint x="650" y="190" as="targetPoint" />
          </mxGeometry>
        </mxCell>
        <mxCell id="LF-yFiG6YkYiWmJkr-Sb-50" value="" style="rounded=0;whiteSpace=wrap;html=1;fillColor=none;dashed=1;" vertex="1" parent="1">
          <mxGeometry x="470" y="655" width="120" height="255" as="geometry" />
        </mxCell>
        <mxCell id="LF-yFiG6YkYiWmJkr-Sb-51" value="" style="endArrow=none;dashed=1;html=1;rounded=0;" edge="1" parent="1">
          <mxGeometry width="50" height="50" relative="1" as="geometry">
            <mxPoint x="373.58" y="865" as="sourcePoint" />
            <mxPoint x="373.58" y="695" as="targetPoint" />
          </mxGeometry>
        </mxCell>
        <mxCell id="LF-yFiG6YkYiWmJkr-Sb-52" value="&lt;div&gt;HaProxy&lt;/div&gt;" style="whiteSpace=wrap;html=1;aspect=fixed;" vertex="1" parent="1">
          <mxGeometry x="334" y="745" width="80" height="80" as="geometry" />
        </mxCell>
        <mxCell id="LF-yFiG6YkYiWmJkr-Sb-53" value="Server 1" style="whiteSpace=wrap;html=1;aspect=fixed;" vertex="1" parent="1">
          <mxGeometry x="490" y="685" width="80" height="80" as="geometry" />
        </mxCell>
        <mxCell id="LF-yFiG6YkYiWmJkr-Sb-54" value="&lt;div&gt;Server 2&lt;/div&gt;" style="whiteSpace=wrap;html=1;aspect=fixed;" vertex="1" parent="1">
          <mxGeometry x="490" y="805" width="80" height="80" as="geometry" />
        </mxCell>
        <mxCell id="LF-yFiG6YkYiWmJkr-Sb-55" value="&lt;div&gt;PostgresDB&lt;/div&gt;&lt;div&gt;Master&lt;br&gt;&lt;/div&gt;" style="whiteSpace=wrap;html=1;aspect=fixed;" vertex="1" parent="1">
          <mxGeometry x="630" y="685" width="80" height="80" as="geometry" />
        </mxCell>
        <mxCell id="LF-yFiG6YkYiWmJkr-Sb-56" value="&lt;div&gt;PostgresDB&lt;/div&gt;&lt;div&gt;Slave&lt;br&gt;&lt;/div&gt;" style="whiteSpace=wrap;html=1;aspect=fixed;" vertex="1" parent="1">
          <mxGeometry x="630" y="805" width="80" height="80" as="geometry" />
        </mxCell>
        <mxCell id="LF-yFiG6YkYiWmJkr-Sb-57" value="" style="endArrow=classic;startArrow=classic;html=1;rounded=0;entryX=0;entryY=0.5;entryDx=0;entryDy=0;exitX=1;exitY=0.5;exitDx=0;exitDy=0;" edge="1" parent="1" source="LF-yFiG6YkYiWmJkr-Sb-52" target="LF-yFiG6YkYiWmJkr-Sb-53">
          <mxGeometry width="50" height="50" relative="1" as="geometry">
            <mxPoint x="510" y="885" as="sourcePoint" />
            <mxPoint x="560" y="835" as="targetPoint" />
          </mxGeometry>
        </mxCell>
        <mxCell id="LF-yFiG6YkYiWmJkr-Sb-58" value="" style="endArrow=classic;startArrow=classic;html=1;rounded=0;exitX=1;exitY=0.5;exitDx=0;exitDy=0;entryX=0;entryY=0.5;entryDx=0;entryDy=0;" edge="1" parent="1" source="LF-yFiG6YkYiWmJkr-Sb-52" target="LF-yFiG6YkYiWmJkr-Sb-54">
          <mxGeometry width="50" height="50" relative="1" as="geometry">
            <mxPoint x="510" y="885" as="sourcePoint" />
            <mxPoint x="560" y="835" as="targetPoint" />
          </mxGeometry>
        </mxCell>
        <mxCell id="LF-yFiG6YkYiWmJkr-Sb-59" value="" style="endArrow=classic;startArrow=classic;html=1;rounded=0;entryX=0;entryY=0.5;entryDx=0;entryDy=0;exitX=1;exitY=0.5;exitDx=0;exitDy=0;" edge="1" parent="1" source="LF-yFiG6YkYiWmJkr-Sb-53" target="LF-yFiG6YkYiWmJkr-Sb-55">
          <mxGeometry width="50" height="50" relative="1" as="geometry">
            <mxPoint x="710" y="865" as="sourcePoint" />
            <mxPoint x="760" y="815" as="targetPoint" />
          </mxGeometry>
        </mxCell>
        <mxCell id="LF-yFiG6YkYiWmJkr-Sb-60" value="" style="endArrow=classic;startArrow=classic;html=1;rounded=0;entryX=0;entryY=0.5;entryDx=0;entryDy=0;exitX=1;exitY=0.5;exitDx=0;exitDy=0;" edge="1" parent="1" source="LF-yFiG6YkYiWmJkr-Sb-54" target="LF-yFiG6YkYiWmJkr-Sb-55">
          <mxGeometry width="50" height="50" relative="1" as="geometry">
            <mxPoint x="630" y="875" as="sourcePoint" />
            <mxPoint x="680" y="825" as="targetPoint" />
          </mxGeometry>
        </mxCell>
        <mxCell id="LF-yFiG6YkYiWmJkr-Sb-61" value="" style="endArrow=classic;startArrow=classic;html=1;rounded=0;entryX=0.5;entryY=1;entryDx=0;entryDy=0;exitX=0.5;exitY=0;exitDx=0;exitDy=0;" edge="1" parent="1" source="LF-yFiG6YkYiWmJkr-Sb-56" target="LF-yFiG6YkYiWmJkr-Sb-55">
          <mxGeometry width="50" height="50" relative="1" as="geometry">
            <mxPoint x="630" y="875" as="sourcePoint" />
            <mxPoint x="680" y="825" as="targetPoint" />
          </mxGeometry>
        </mxCell>
        <mxCell id="LF-yFiG6YkYiWmJkr-Sb-62" value="User" style="shape=umlActor;verticalLabelPosition=bottom;verticalAlign=top;html=1;outlineConnect=0;" vertex="1" parent="1">
          <mxGeometry x="150" y="755" width="30" height="60" as="geometry" />
        </mxCell>
        <mxCell id="LF-yFiG6YkYiWmJkr-Sb-63" value="" style="endArrow=classic;startArrow=classic;html=1;rounded=0;entryX=0;entryY=0.5;entryDx=0;entryDy=0;" edge="1" parent="1" source="LF-yFiG6YkYiWmJkr-Sb-62" target="LF-yFiG6YkYiWmJkr-Sb-52">
          <mxGeometry width="50" height="50" relative="1" as="geometry">
            <mxPoint x="380" y="835" as="sourcePoint" />
            <mxPoint x="430" y="785" as="targetPoint" />
          </mxGeometry>
        </mxCell>
        <mxCell id="LF-yFiG6YkYiWmJkr-Sb-64" value="SSL Termination" style="text;html=1;align=center;verticalAlign=middle;whiteSpace=wrap;rounded=0;" vertex="1" parent="1">
          <mxGeometry x="344" y="870" width="60" height="30" as="geometry" />
        </mxCell>
        <mxCell id="LF-yFiG6YkYiWmJkr-Sb-67" value="" style="endArrow=classic;startArrow=classic;html=1;rounded=0;entryX=1;entryY=0.5;entryDx=0;entryDy=0;exitX=0;exitY=0.5;exitDx=0;exitDy=0;" edge="1" parent="1" source="LF-yFiG6YkYiWmJkr-Sb-56" target="LF-yFiG6YkYiWmJkr-Sb-53">
          <mxGeometry width="50" height="50" relative="1" as="geometry">
            <mxPoint x="570" y="645" as="sourcePoint" />
            <mxPoint x="650" y="775" as="targetPoint" />
          </mxGeometry>
        </mxCell>
        <mxCell id="LF-yFiG6YkYiWmJkr-Sb-68" value="" style="endArrow=classic;startArrow=classic;html=1;rounded=0;exitX=1;exitY=0.5;exitDx=0;exitDy=0;entryX=0;entryY=0.5;entryDx=0;entryDy=0;" edge="1" parent="1" source="LF-yFiG6YkYiWmJkr-Sb-54" target="LF-yFiG6YkYiWmJkr-Sb-56">
          <mxGeometry width="50" height="50" relative="1" as="geometry">
            <mxPoint x="600" y="825" as="sourcePoint" />
            <mxPoint x="650" y="775" as="targetPoint" />
          </mxGeometry>
        </mxCell>
        <mxCell id="LF-yFiG6YkYiWmJkr-Sb-77" style="edgeStyle=orthogonalEdgeStyle;rounded=0;orthogonalLoop=1;jettySize=auto;html=1;entryX=0.5;entryY=0;entryDx=0;entryDy=0;" edge="1" parent="1" source="LF-yFiG6YkYiWmJkr-Sb-75" target="LF-yFiG6YkYiWmJkr-Sb-52">
          <mxGeometry relative="1" as="geometry" />
        </mxCell>
        <mxCell id="LF-yFiG6YkYiWmJkr-Sb-69" value="Stripe" style="shape=process;whiteSpace=wrap;html=1;backgroundOutline=1;" vertex="1" parent="1">
          <mxGeometry x="314" y="480" width="120" height="60" as="geometry" />
        </mxCell>
        <mxCell id="LF-yFiG6YkYiWmJkr-Sb-71" value="" style="endArrow=classic;startArrow=classic;html=1;rounded=0;entryX=0.5;entryY=1;entryDx=0;entryDy=0;" edge="1" parent="1" source="LF-yFiG6YkYiWmJkr-Sb-62" target="LF-yFiG6YkYiWmJkr-Sb-69">
          <mxGeometry width="50" height="50" relative="1" as="geometry">
            <mxPoint x="490" y="600" as="sourcePoint" />
            <mxPoint x="540" y="550" as="targetPoint" />
          </mxGeometry>
        </mxCell>
        <mxCell id="LF-yFiG6YkYiWmJkr-Sb-72" value="Stripe has interactions with customers via stripe JS SDK" style="text;html=1;align=center;verticalAlign=middle;whiteSpace=wrap;rounded=0;" vertex="1" parent="1">
          <mxGeometry x="130" y="620" width="150" height="30" as="geometry" />
        </mxCell>
        <mxCell id="LF-yFiG6YkYiWmJkr-Sb-78" value="" style="edgeStyle=orthogonalEdgeStyle;rounded=0;orthogonalLoop=1;jettySize=auto;html=1;entryX=0.5;entryY=0;entryDx=0;entryDy=0;endArrow=none;endFill=0;" edge="1" parent="1" source="LF-yFiG6YkYiWmJkr-Sb-69" target="LF-yFiG6YkYiWmJkr-Sb-75">
          <mxGeometry relative="1" as="geometry">
            <mxPoint x="374" y="540" as="sourcePoint" />
            <mxPoint x="374" y="745" as="targetPoint" />
          </mxGeometry>
        </mxCell>
        <mxCell id="LF-yFiG6YkYiWmJkr-Sb-75" value="Incoming interactions from stripe come in va HAProxy" style="text;html=1;align=center;verticalAlign=middle;whiteSpace=wrap;rounded=0;" vertex="1" parent="1">
          <mxGeometry x="311" y="640" width="126" height="30" as="geometry" />
        </mxCell>
        <mxCell id="LF-yFiG6YkYiWmJkr-Sb-79" value="" style="endArrow=classic;html=1;rounded=0;entryX=0.5;entryY=1;entryDx=0;entryDy=0;exitX=0.5;exitY=0;exitDx=0;exitDy=0;" edge="1" parent="1" source="LF-yFiG6YkYiWmJkr-Sb-50" target="LF-yFiG6YkYiWmJkr-Sb-69">
          <mxGeometry width="50" height="50" relative="1" as="geometry">
            <mxPoint x="640" y="720" as="sourcePoint" />
            <mxPoint x="690" y="670" as="targetPoint" />
          </mxGeometry>
        </mxCell>
        <mxCell id="LF-yFiG6YkYiWmJkr-Sb-80" value="Server to stripe interactions" style="text;html=1;align=center;verticalAlign=middle;whiteSpace=wrap;rounded=0;" vertex="1" parent="1">
          <mxGeometry x="430" y="570" width="120" height="30" as="geometry" />
        </mxCell>
        <mxCell id="LF-yFiG6YkYiWmJkr-Sb-81" value="Web servers connect to both postgress databases, with a master specifcy, on fail, the web servers connect to the next avaliable database" style="text;html=1;align=center;verticalAlign=middle;whiteSpace=wrap;rounded=0;" vertex="1" parent="1">
          <mxGeometry x="414" y="350" width="336" height="30" as="geometry" />
        </mxCell>
      </root>
    </mxGraphModel>
  </diagram>
</mxfile>
